<?xml version="1.0" encoding="utf-8"?>
<!-- Svg Vector Icons : http://www.onlinewebfonts.com/icon -->
<!DOCTYPE svg PUBLIC "-//W3C//DTD SVG 1.1//EN" "http://www.w3.org/Graphics/SVG/1.1/DTD/svg11.dtd">
<svg version="1.1" xmlns="http://www.w3.org/2000/svg" xmlns:xlink="http://www.w3.org/1999/xlink" x="0px" y="0px" viewBox="0 0 1000 1000" enable-background="new 0 0 1000 1000" xml:space="preserve">
<metadata> Svg Vector Icons : http://www.onlinewebfonts.com/icon </metadata>
<g><path d="M846.5,846.5C939,753.9,990,630.9,990,500c0-130.9-51-253.9-143.5-346.5C754,61,630.9,10,500,10c-130.9,0-253.9,51-346.5,143.5C60.9,246.1,10,369.1,10,500s51,253.9,143.5,346.5C246,939.1,369.1,990,500,990C630.9,990,753.9,939,846.5,846.5z M61.6,500C61.6,258.2,258.2,61.6,500,61.6c241.7,0,438.4,196.7,438.4,438.4S741.8,938.4,500,938.4C258.2,938.4,61.6,741.7,61.6,500L61.6,500z"/><path d="M518.2,801.9l206.3-206.3c10.1-10.1,10.1-26.4,0-36.5c-10.1-10.1-26.4-10.1-36.5,0L525.8,721.4V190.5c0-14.2-11.6-25.8-25.8-25.8c-14.2,0-25.8,11.6-25.8,25.8v530.9L311.9,559.1c-10.1-10.1-26.4-10.1-36.5,0c-5.1,5.1-7.5,11.7-7.5,18.2c0,6.5,2.5,13.2,7.6,18.2l206.3,206.3C491.9,811.9,508.2,811.9,518.2,801.9L518.2,801.9z"/></g>
</svg>