<svg width="41" height="40" viewBox="0 0 41 40" fill="none" xmlns="http://www.w3.org/2000/svg">
<g clip-path="url(#clip0_1297_1628)">
<path d="M40.5 0H0.5V40H40.5V0Z" fill="#00ECFF"/>
<path d="M32.5 8H8.5V32H32.5V8Z" fill="black"/>
<path d="M29.0822 11.4427H11.9429V21.7213H29.0822V11.4427Z" fill="white"/>
<path d="M29.0822 25.1641H11.9429V28.582H29.0822V25.1641Z" fill="white"/>
<path d="M17.0942 14.5883C16.0044 14.5883 15.1128 15.4799 15.1128 16.5697C15.1128 17.6595 16.0044 18.5511 17.0942 18.5511C18.184 18.5511 19.0756 17.6595 19.0756 16.5697C19.0756 15.4799 18.184 14.5883 17.0942 14.5883Z" fill="black"/>
<path d="M23.9301 14.5883C22.8403 14.5883 21.9487 15.4799 21.9487 16.5697C21.9487 17.6595 22.8403 18.5511 23.9301 18.5511C25.0199 18.5511 25.9116 17.6595 25.9116 16.5697C25.9363 15.4799 25.0447 14.5883 23.9301 14.5883Z" fill="black"/>
</g>
<defs>
<clipPath id="clip0_1297_1628">
<rect width="40" height="40" fill="white" transform="translate(0.5)"/>
</clipPath>
</defs>
</svg>
