<svg width="40" height="40" viewBox="0 0 40 40" fill="none" xmlns="http://www.w3.org/2000/svg">
<path d="M40 0H0V40H40V0Z" fill="#FF00C3"/>
<path d="M32 8H8V32H32V8Z" fill="black"/>
<path d="M28.5821 11.4424H11.4427V21.721H28.5821V11.4424Z" fill="white"/>
<path d="M28.5821 21.7217H11.4427V28.5824H28.5821V21.7217Z" fill="white"/>
<path d="M23.4424 15.4961V17.2051H25.1514V15.4961H23.4424Z" fill="black"/>
<path d="M21.7277 15.4902V17.1992H23.4367V15.4902H21.7277Z" fill="black"/>
<path d="M16.5944 18.3037C17.5383 18.3037 18.3034 17.5386 18.3034 16.5947C18.3034 15.6509 17.5383 14.8857 16.5944 14.8857C15.6506 14.8857 14.8854 15.6509 14.8854 16.5947C14.8854 17.5386 15.6506 18.3037 16.5944 18.3037Z" fill="black"/>
<path fill-rule="evenodd" clip-rule="evenodd" d="M16.5944 15.1609C15.8028 15.1609 15.1612 15.8025 15.1612 16.5941C15.1612 17.3856 15.8028 18.0273 16.5944 18.0273C17.386 18.0273 18.0276 17.3856 18.0276 16.5941C18.0276 15.8025 17.386 15.1609 16.5944 15.1609ZM14.6097 16.5941C14.6097 15.498 15.4983 14.6094 16.5944 14.6094C17.6905 14.6094 18.5791 15.498 18.5791 16.5941C18.5791 17.6902 17.6905 18.5788 16.5944 18.5788C15.4983 18.5788 14.6097 17.6902 14.6097 16.5941Z" fill="black"/>
<path d="M19.4032 24.6176L20.6116 23.4092L19.4032 22.2008L18.1948 23.4092L19.4032 24.6176Z" fill="black"/>
<path d="M20.6157 23.4067L21.8241 22.1982L20.6157 20.9898L19.4073 22.1982L20.6157 23.4067Z" fill="black"/>
<path d="M20.6141 25.8295L21.8225 24.6211L20.6141 23.4127L19.4057 24.6211L20.6141 25.8295Z" fill="black"/>
</svg>
