<svg width="139" height="23" viewBox="0 0 139 23" fill="none" xmlns="http://www.w3.org/2000/svg">
<g clip-path="url(#clip0_300_13)">
<path d="M10.22 0.0200195V15.35H7.67V0.0200195H0V17.9H2.55V2.57002H5.11V17.9H12.77V2.57002H15.33V17.9H17.88V0.0200195H10.22Z" fill="black"/>
<path d="M40.87 5.12988V7.68988H48.54V10.2399H40.87V17.9099H51.09V5.12988H40.87ZM48.53 15.3499H45.98H43.42V12.7899H45.98H48.53V15.3499Z" fill="black"/>
<path d="M35.7599 7.67992H38.32V5.12992H35.7599V2.16992H33.2V17.8999H38.32V15.3499H35.7599V7.67992Z" fill="black"/>
<path d="M53.65 17.9H56.28V10.2H64.78V7.71H56.28V2.49H65.34V0H53.65V17.9Z" fill="black"/>
<path d="M71.98 4.87988C69.82 4.87988 68.19 5.77988 67.14 7.55988L66.99 7.80988L68.86 9.51988L69.07 9.06988C69.56 7.98988 70.7 7.29988 71.96 7.29988C73.64 7.29988 74.64 8.21988 74.64 9.75988V10.5099C73.48 10.1999 72.47 10.0399 71.63 10.0399C68.64 10.0399 66.72 11.6599 66.72 14.1799C66.72 16.5399 68.58 18.1899 71.23 18.1899C72.61 18.1899 73.77 17.8299 74.69 17.1299V17.9199H77.23V9.93988C77.22 6.76988 75.26 4.87988 71.98 4.87988ZM71.33 15.8299C70.1 15.8299 69.3 15.1899 69.3 14.2099C69.3 12.6699 70.82 12.4399 71.73 12.4399C72.61 12.4399 73.56 12.5999 74.64 12.9299V14.1599C73.85 15.1799 72.57 15.8299 71.33 15.8299Z" fill="black"/>
<path d="M89.38 14.1299C88.53 15.2099 87.45 15.7599 86.17 15.7599C83.7 15.7599 82.11 14.0999 82.11 11.5399C82.11 10.3199 82.49 9.30988 83.24 8.52988C84.01 7.71988 84.94 7.31988 86.09 7.31988C87.29 7.31988 88.29 7.80988 89.16 8.80988L89.41 9.09988L91.19 7.39988L90.97 7.13988C89.7 5.63988 88.06 4.87988 86.09 4.87988C84.25 4.87988 82.67 5.53988 81.38 6.84988C80.11 8.13988 79.47 9.71988 79.47 11.5399C79.47 13.3899 80.1 14.9699 81.33 16.2499C82.59 17.5199 84.16 18.1699 86.01 18.1699C88.1 18.1699 89.85 17.3499 91.22 15.7399L91.45 15.4699L89.62 13.8299L89.38 14.1299Z" fill="black"/>
<path d="M95.87 2.20996H93.28V14.01C93.28 16.7 94.53 17.95 97.21 17.95C97.67 17.95 98.11 17.92 98.39 17.9L98.73 17.87V15.52L97.39 15.55C96.18 15.55 95.87 15.18 95.87 13.73V7.58996H98.74V5.19996H95.87V2.20996Z" fill="black"/>
<path d="M107.12 4.87988C105.26 4.87988 103.68 5.53988 102.43 6.82988C101.19 8.10988 100.57 9.69988 100.57 11.5399C100.57 13.3799 101.2 14.9699 102.43 16.2499C103.69 17.5199 105.26 18.1699 107.11 18.1699C108.98 18.1699 110.56 17.5199 111.82 16.2499C113.07 14.9499 113.71 13.3699 113.71 11.5399C113.71 9.69988 113.07 8.11988 111.8 6.82988C110.56 5.52988 108.98 4.87988 107.12 4.87988ZM107.12 15.7599C106 15.7599 105.05 15.3599 104.32 14.5799C103.58 13.7699 103.21 12.7499 103.21 11.5399C103.21 10.3299 103.58 9.30988 104.32 8.52988C105.05 7.72988 105.99 7.31988 107.12 7.31988C108.28 7.31988 109.21 7.70988 109.95 8.52988C110.69 9.30988 111.06 10.3299 111.06 11.5399C111.06 12.7499 110.69 13.7699 109.95 14.5799C109.21 15.3599 108.26 15.7599 107.12 15.7599Z" fill="black"/>
<path d="M122.48 5C120.88 5 119.79 5.35 118.82 6.22V5.17H116.28V17.9H118.87V12.42C118.87 8.76 119.85 7.47 122.61 7.47C122.74 7.47 122.88 7.47 122.97 7.49L123.4 7.57V5.07L123.09 5.03C122.89 5 122.67 5 122.48 5Z" fill="black"/>
<path d="M135.23 5.16992L131.5 14.5299L127.7 5.16992H124.82L130.08 17.6899L128.07 22.6499H130.89L138.08 5.16992H135.23Z" fill="black"/>
<path d="M20.4301 5.12988V17.8999H30.6501V15.3499H22.9801V12.7899H30.6501V5.12988H20.4301ZM28.0901 10.2399H25.5301H22.9801V7.67988H25.5301H28.0901V10.2399Z" fill="black"/>
</g>
<defs>
<clipPath id="clip0_300_13">
<rect width="138.08" height="22.65" fill="white"/>
</clipPath>
</defs>
</svg>
