<svg width="88" height="88" viewBox="0 0 88 88" fill="none" xmlns="http://www.w3.org/2000/svg">
<path d="M88 0H0V88H88V0Z" fill="#00ECFF"/>
<path d="M20.3073 20.3242H67.6919V67.7088H20.3073V20.3242Z" fill="black"/>
<path d="M27.0774 27.0703H60.9237V47.3778H27.0774V27.0703Z" fill="white"/>
<path d="M27.0774 54.1406H60.9237V60.9098H27.0774V54.1406Z" fill="white"/>
<path d="M37.229 33.3008C35.0593 33.3008 33.2939 35.0662 33.2939 37.2363C33.2939 39.406 35.0593 41.1709 37.229 41.1709C39.3987 41.1709 41.1641 39.406 41.1641 37.2363C41.1641 35.0662 39.3987 33.3008 37.229 33.3008Z" fill="black"/>
<path d="M50.7709 33.3008C48.6012 33.3008 46.8358 35.0662 46.8358 37.2363C46.8358 39.406 48.6012 41.1709 50.7709 41.1709C52.9406 41.1709 54.7059 39.406 54.7059 37.2363C54.7059 35.0662 52.9406 33.3008 50.7709 33.3008Z" fill="black"/>
</svg>
