<svg width="40" height="41" viewBox="0 0 40 41" fill="none" xmlns="http://www.w3.org/2000/svg">
<path d="M0 0.940918H40V40.9409H0V0.940918Z" fill="black"/>
<path d="M28 19.9409H15.83L21.42 14.3509L20 12.9409L12 20.9409L20 28.9409L21.41 27.5309L15.83 21.9409H28V19.9409Z" fill="white"/>
<path d="M0 0.940918V-0.059082H-1V0.940918H0ZM40 0.940918H41V-0.059082H40V0.940918ZM40 40.9409V41.9409H41V40.9409H40ZM0 40.9409H-1V41.9409H0V40.9409ZM0 1.94092H40V-0.059082H0V1.94092ZM39 0.940918V40.9409H41V0.940918H39ZM40 39.9409H0V41.9409H40V39.9409ZM1 40.9409V0.940918H-1V40.9409H1Z" fill="black"/>
</svg>
