<svg width="40" height="41" viewBox="0 0 40 41" fill="none" xmlns="http://www.w3.org/2000/svg">
<path d="M0 0.940918H40V40.9409H0V0.940918Z" fill="black"/>
<path d="M13 21.9411H24.17L19.29 26.8211C18.9 27.2111 18.9 27.8511 19.29 28.2411C19.68 28.6311 20.31 28.6311 20.7 28.2411L27.29 21.6511C27.68 21.2611 27.68 20.6311 27.29 20.2411L20.71 13.6411C20.32 13.2511 19.69 13.2511 19.3 13.6411C18.91 14.0311 18.91 14.6611 19.3 15.0511L24.17 19.9411H13C12.45 19.9411 12 20.3911 12 20.9411C12 21.4911 12.45 21.9411 13 21.9411Z" fill="white"/>
<path d="M0 0.940918V-0.059082H-1V0.940918H0ZM40 0.940918H41V-0.059082H40V0.940918ZM40 40.9409V41.9409H41V40.9409H40ZM0 40.9409H-1V41.9409H0V40.9409ZM0 1.94092H40V-0.059082H0V1.94092ZM39 0.940918V40.9409H41V0.940918H39ZM40 39.9409H0V41.9409H40V39.9409ZM1 40.9409V0.940918H-1V40.9409H1Z" fill="black"/>
</svg>
