<svg width="52" height="52" viewBox="0 0 52 52" fill="none" xmlns="http://www.w3.org/2000/svg">
<path d="M52 0H0V52H52V0Z" fill="#00ECFF"/>
<path d="M41.6 10.3999H10.4V41.5999H41.6V10.3999Z" fill="black"/>
<path d="M37.1566 14.8755H14.8755V28.2377H37.1566V14.8755Z" fill="white"/>
<path d="M37.1566 32.7131H14.8755V37.1565H37.1566V32.7131Z" fill="white"/>
<path d="M21.5728 18.9646C20.156 18.9646 18.9969 20.1237 18.9969 21.5405C18.9969 22.9572 20.156 24.1163 21.5728 24.1163C22.9895 24.1163 24.1486 22.9572 24.1486 21.5405C24.1486 20.1237 22.9895 18.9646 21.5728 18.9646Z" fill="black"/>
<path d="M30.4594 18.9646C29.0427 18.9646 27.8836 20.1237 27.8836 21.5405C27.8836 22.9572 29.0427 24.1163 30.4594 24.1163C31.8762 24.1163 33.0353 22.9572 33.0353 21.5405C33.0675 20.1237 31.9084 18.9646 30.4594 18.9646Z" fill="black"/>
</svg>
